<?xml version="1.0" encoding="UTF-8" standalone="no"?>
<!-- Created with Inkscape (http://www.inkscape.org/) -->

<svg
   width="4in"
   height="5.25in"
   viewBox="0 0 101.6 133.35"
   version="1.1"
   id="svg5"
   xml:space="preserve"
   xmlns="http://www.w3.org/2000/svg"
   xmlns:svg="http://www.w3.org/2000/svg"><defs
     id="defs2" /><g
     id="layer1"><path
       id="path348"
       style="fill:none;stroke-width:0.26458333;fill-opacity:1;stroke:#000000;stroke-dasharray:none;vector-effect:non-scaling-stroke;-inkscape-stroke:hairline"
       d="M 54.561528 1.2273153 C 52.784832 1.2459512 51.021418 1.3473715 49.360295 1.5306559 C 41.624092 2.384248 35.197606 4.8026935 30.69425 8.5550334 C 29.923271 9.1974332 28.696352 10.447453 28.234452 11.060824 C 24.293816 16.293728 21.955825 23.773416 20.810616 34.812862 C 20.640456 36.452998 20.657204 36.345884 20.572904 36.320264 C 20.355795 36.254274 18.245723 36.208127 17.343644 36.249467 C 13.296228 36.434976 9.8456217 37.371029 5.6792399 39.413615 C 4.6614489 39.912591 4.659248 39.91407 4.2111125 40.340173 C 3.9642147 40.574932 3.6236093 40.94998 3.4545695 41.173714 C 1.6933833 43.504759 0.73502012 47.72921 0.3519165 54.849882 C 0.21541264 57.387402 0.20193632 58.161321 0.19223633 64.005912 C 0.18655633 67.442421 0.16178223 70.563944 0.13539225 71.149146 C 0.10961228 71.720838 0.065110239 73.306503 0.036690267 74.672445 C -0.22014748 87.017208 1.376178 95.005647 5.2554932 100.78455 C 5.7693517 101.55014 6.4223549 102.39331 6.7411906 102.70329 C 9.0646823 104.96224 13.654957 105.85779 20.14399 105.31812 C 20.5566 105.28402 20.902419 105.26419 20.912419 105.27419 C 20.922419 105.28424 20.906462 105.88524 20.876762 106.61003 C 20.809562 108.2376 20.807428 111.92744 20.872628 113.23547 C 21.172587 119.25669 22.129896 123.79829 23.907585 127.63304 C 24.231224 128.33118 24.368186 128.51524 24.935946 129.01796 C 26.881554 130.74071 30.36451 131.82589 34.829915 132.09995 C 35.728644 132.15511 38.448081 132.11697 39.407931 132.03587 C 43.476166 131.69214 47.045299 130.71414 49.390267 129.30012 C 49.852606 129.02133 50.062553 128.86881 51.058382 128.08727 C 52.198271 127.19267 53.028826 126.15476 53.758476 124.71383 C 55.385204 121.50132 56.095499 116.87049 55.947489 110.43977 C 55.917779 109.1487 55.814471 106.82672 55.761971 106.26897 L 55.751636 106.15838 L 59.066679 106.14753 C 60.889867 106.14133 62.394244 106.15083 62.410144 106.16923 C 62.425944 106.18763 62.414189 106.50144 62.383789 106.86635 C 62.144739 109.73467 62.147331 112.62638 62.391541 114.82813 C 62.82836 118.7666 64.198364 122.01528 66.347371 124.21051 C 67.232261 125.11444 68.696587 125.80675 70.863375 126.34526 C 74.804221 127.32467 79.74064 127.38903 83.219727 126.50649 C 84.877585 126.08594 86.080733 125.49329 86.901672 124.69316 C 87.312932 124.29233 87.548666 123.90786 88.325875 122.36927 C 91.559592 115.96769 93.615859 107.43084 94.940458 94.910486 C 95.026158 94.100438 95.176171 92.806956 95.273771 92.035726 C 96.03162 86.046312 96.500195 80.499631 96.740865 74.665727 C 96.813645 72.901077 96.813982 66.851802 96.741382 65.288521 C 96.589922 62.026926 96.389767 59.594306 96.066488 57.083854 C 95.933988 56.054904 95.779792 54.984829 95.736792 54.797172 C 95.717912 54.714685 95.784015 54.652835 96.175525 54.386344 C 97.032174 53.803226 97.824391 53.061323 98.44412 52.262443 C 98.99551 51.551656 99.625773 50.431228 99.973743 49.542196 C 100.05944 49.323249 100.20419 48.954751 100.29569 48.723641 C 100.57607 48.015706 100.84079 47.187618 101.02329 46.445744 C 102.27197 41.3698 101.42165 35.450874 98.821875 31.119548 C 98.121396 29.952525 97.472913 29.116333 96.574984 28.222567 C 95.384415 27.037525 94.010206 25.720994 93.680587 25.449609 C 92.706138 24.647322 91.71308 23.982205 90.581551 23.373767 C 90.205791 23.171715 89.883733 22.986122 89.865833 22.960872 C 89.847933 22.935622 89.8332 22.837505 89.83276 22.743315 C 89.83236 22.649127 89.801313 22.360569 89.763513 22.10201 C 89.222964 18.402498 86.954428 14.652305 82.669373 10.373527 C 81.731803 9.4373342 81.278972 9.0433891 80.256083 8.2744303 C 75.339478 4.5783539 68.040257 2.1273565 59.843376 1.4205851 C 58.128402 1.2727128 56.338223 1.2086794 54.561528 1.2273153 z " /></g></svg>
